<?xml version="1.0" encoding="UTF-8" standalone="no"?>
<svg
   xmlns:dc="http://purl.org/dc/elements/1.1/"
   xmlns:cc="http://creativecommons.org/ns#"
   xmlns:rdf="http://www.w3.org/1999/02/22-rdf-syntax-ns#"
   xmlns:svg="http://www.w3.org/2000/svg"
   xmlns="http://www.w3.org/2000/svg"
   viewBox="0 0 282.24667 238.636"
   height="238.636"
   width="282.24667"
   xml:space="preserve"
   id="svg2"
   version="1.1"><metadata
     id="metadata8"><rdf:RDF><cc:Work
         rdf:about=""><dc:format>image/svg+xml</dc:format><dc:type
           rdf:resource="http://purl.org/dc/dcmitype/StillImage" /></cc:Work></rdf:RDF></metadata><defs
     id="defs6"><clipPath
       id="clipPath18"
       clipPathUnits="userSpaceOnUse"><path
         id="path16"
         d="m 75.231,98.49 h 0.016 l 28.535,-18.036 c 0.357,0.671 0.89,1.265 1.442,1.759 v 0 c 0.32,0.283 0.649,0.553 0.974,0.83 v 0 c 0.096,0.081 0.189,0.164 0.283,0.246 v 0 27.96 l -5.523,3.49 -25.727,16.266 z" /></clipPath><linearGradient
       id="linearGradient28"
       spreadMethod="pad"
       gradientTransform="matrix(43.62077,-14.16887,-14.16887,-43.62077,69.166504,112.33643)"
       gradientUnits="userSpaceOnUse"
       y2="0"
       x2="1"
       y1="0"
       x1="0"><stop
         id="stop24"
         offset="0"
         style="stop-opacity:1;stop-color:#f3f4f4" /><stop
         id="stop26"
         offset="1"
         style="stop-opacity:1;stop-color:#f3f4f4" /></linearGradient><clipPath
       id="clipPath38"
       clipPathUnits="userSpaceOnUse"><path
         id="path36"
         d="m 137.747,130.996 c -0.007,0 0,-0.006 0,-0.006 v 0 l -25.712,-16.251 -0.002,-0.001 -5.536,-3.499 -0.016,0.01 V 81.305 c 0.192,-0.037 0.383,-0.072 0.576,-0.11 v 0 c 0.416,-0.08 0.849,-0.035 1.258,-0.158 v 0 c 0.352,-0.006 0.688,-0.195 0.805,-0.641 v 0 l 24.408,15.427 4.195,2.651 c 0.011,0 0.017,0.006 0.028,0.007 v 0 32.516 c -0.002,0 -0.002,-0.001 -0.004,-0.001" /></clipPath><linearGradient
       id="linearGradient52"
       spreadMethod="pad"
       gradientTransform="matrix(23.628618,-7.6750321,-7.6750321,-23.628618,111.39893,109.60645)"
       gradientUnits="userSpaceOnUse"
       y2="0"
       x2="1"
       y1="0"
       x1="0"><stop
         id="stop44"
         offset="0"
         style="stop-opacity:1;stop-color:#dcddde" /><stop
         id="stop46"
         offset="0.509017"
         style="stop-opacity:1;stop-color:#e9eaeb" /><stop
         id="stop48"
         offset="0.915399"
         style="stop-opacity:1;stop-color:#f3f4f4" /><stop
         id="stop50"
         offset="1"
         style="stop-opacity:1;stop-color:#f3f4f4" /></linearGradient><clipPath
       id="clipPath62"
       clipPathUnits="userSpaceOnUse"><path
         id="path60"
         d="M 0,178.977 H 211.685 V 0 H 0 Z" /></clipPath><clipPath
       id="clipPath82"
       clipPathUnits="userSpaceOnUse"><path
         id="path80"
         d="m 103.476,82.717 v -1.615 c 0.005,-0.012 1.28,-0.985 2.995,-0.985 v 0 c 1.692,0 2.854,0.848 2.88,0.838 v 0 1.908 29.404 c -0.015,-0.016 -1.25,-1.041 -2.875,-1.041 v 0 c -1.458,0 -3,1.175 -3,1.187 v 0 z" /></clipPath><linearGradient
       id="linearGradient98"
       spreadMethod="pad"
       gradientTransform="matrix(5.875,0,0,-5.875,103.47607,96.265137)"
       gradientUnits="userSpaceOnUse"
       y2="0"
       x2="1"
       y1="0"
       x1="0"><stop
         id="stop88"
         offset="0"
         style="stop-opacity:1;stop-color:#f5f6f6" /><stop
         id="stop90"
         offset="0.3347561"
         style="stop-opacity:1;stop-color:#f8f8f9" /><stop
         id="stop92"
         offset="0.506804"
         style="stop-opacity:1;stop-color:#f8f8f9" /><stop
         id="stop94"
         offset="0.64396864"
         style="stop-opacity:1;stop-color:#f8f8f9" /><stop
         id="stop96"
         offset="1"
         style="stop-opacity:1;stop-color:#dedfe0" /></linearGradient><clipPath
       id="clipPath108"
       clipPathUnits="userSpaceOnUse"><path
         id="path106"
         d="M 0,178.977 H 211.685 V 0 H 0 Z" /></clipPath></defs><g
     transform="matrix(1.3333333,0,0,-1.3333333,0,238.636)"
     id="g10"><g
       id="g12"><g
         clip-path="url(#clipPath18)"
         id="g14"><g
           id="g20"><g
             id="g22"><path
               id="path30"
               style="fill:url(#linearGradient28);stroke:none"
               d="m 75.231,98.49 h 0.016 l 28.535,-18.036 c 0.357,0.671 0.89,1.265 1.442,1.759 v 0 c 0.32,0.283 0.649,0.553 0.974,0.83 v 0 c 0.096,0.081 0.189,0.164 0.283,0.246 v 0 27.96 l -5.523,3.49 -25.727,16.266 z" /></g></g></g></g><g
       id="g32"><g
         clip-path="url(#clipPath38)"
         id="g34"><g
           id="g40"><g
             id="g42"><path
               id="path54"
               style="fill:url(#linearGradient52);stroke:none"
               d="m 137.747,130.996 c -0.007,0 0,-0.006 0,-0.006 v 0 l -25.712,-16.251 -0.002,-0.001 -5.536,-3.499 -0.016,0.01 V 81.305 c 0.192,-0.037 0.383,-0.072 0.576,-0.11 v 0 c 0.416,-0.08 0.849,-0.035 1.258,-0.158 v 0 c 0.352,-0.006 0.688,-0.195 0.805,-0.641 v 0 l 24.408,15.427 4.195,2.651 c 0.011,0 0.017,0.006 0.028,0.007 v 0 32.516 c -0.002,0 -0.002,-0.001 -0.004,-0.001" /></g></g></g></g><g
       id="g56"><g
         clip-path="url(#clipPath62)"
         id="g58"><g
           transform="translate(74.856,131.6855)"
           id="g64"><path
             id="path66"
             style="fill:#eaeaea;fill-opacity:1;fill-rule:nonzero;stroke:none"
             d="m 0,0 v -33.196 l 0.016,-0.222 0.267,-0.153 28.482,-18.001 c 10e-4,0.002 0.003,0.004 0.003,0.006 0.376,-0.221 1.486,-0.784 2.878,-0.784 0.008,0 0.006,0.032 0.016,0.032 l -0.016,2.372 H 28.62 v -0.648 L 0.75,-32.979 v 31.618 l 30.5,-19.282 v -28.078 c 0.031,0.026 0.062,0.052 0.092,0.078 0.165,0.141 0.332,0.28 0.49,0.426 0.092,0.085 0.199,0.301 0.088,0.061 0.021,0.047 0.055,0.068 0.08,0.107 l 0,27.819 z" /></g><g
           transform="translate(137.3765,98.6992)"
           id="g68"><path
             id="path70"
             style="fill:#e0e1e0;fill-opacity:1;fill-rule:nonzero;stroke:none"
             d="m 0,0 -28.014,-17.704 -0.011,0.744 h -2.496 V 12.324 L 0,31.612 Z m 0.75,32.423 v 0.25 l -0.622,-0.002 -0.059,-0.128 -30.95,-19.56 -0.39,0.244 v -30.556 c 0.133,-0.021 0.264,-0.048 0.397,-0.071 v -1.948 c 1.598,0.028 2.307,0.44 2.719,0.672 0,-0.006 -0.014,-0.01 -0.014,-0.014 l 28.646,18.104 0.258,0.207 0.015,32.59 z" /></g><g
           transform="translate(136.812,134.1611)"
           id="g72"><path
             id="path74"
             style="fill:#fdc444;fill-opacity:1;fill-rule:nonzero;stroke:none"
             d="m 0,0 -0.005,-0.008 c -0.121,0.092 -0.336,0.23 -0.72,0.477 l -26.725,16.89 -0.369,0.232 c -1.507,0.882 -3.691,0.809 -5.08,-0.13 L -60.75,-0.135 c -0.739,-0.575 -1.146,-1.336 -1.146,-2.14 0,-0.831 0.426,-1.608 1.225,-2.204 l 30.182,-19.074 0.219,-0.151 29.852,18.866 0.622,0.395 c 0.749,0.578 1.161,1.341 1.161,2.151 C 1.365,-1.418 0.868,-0.583 0,0" /></g></g></g><g
       id="g76"><g
         clip-path="url(#clipPath82)"
         id="g78"><g
           id="g84"><g
             id="g86"><path
               id="path100"
               style="fill:url(#linearGradient98);stroke:none"
               d="m 103.476,82.717 v -1.615 c 0.005,-0.012 1.28,-0.985 2.995,-0.985 v 0 c 1.692,0 2.854,0.848 2.88,0.838 v 0 1.908 29.404 c -0.015,-0.016 -1.25,-1.041 -2.875,-1.041 v 0 c -1.458,0 -3,1.175 -3,1.187 v 0 z" /></g></g></g></g><g
       id="g102"><g
         clip-path="url(#clipPath108)"
         id="g104"><g
           transform="translate(16.1548,41.9336)"
           id="g110"><path
             id="path112"
             style="fill:#231f20;fill-opacity:1;fill-rule:nonzero;stroke:none"
             d="M 0,0 V 15.654 H 17.972 V 9.613 H 6.004 V 5.775 h 3.305 c 5.129,0 9.308,-4.179 9.308,-9.308 0,-5.129 -4.179,-9.309 -9.308,-9.309 C 4.18,-12.842 0,-8.662 0,-3.533 v 0.19 h 5.966 c 0,-1.862 1.481,-3.305 3.343,-3.305 1.824,0 3.306,1.481 3.306,3.342 C 12.615,-1.481 11.133,0 9.309,0 Z" /></g><g
           transform="translate(55.7114,47.0254)"
           id="g114"><path
             id="path116"
             style="fill:#231f20;fill-opacity:1;fill-rule:nonzero;stroke:none"
             d="m 0,0 11.588,10.563 h 3.381 V -17.934 H 7.446 V -3.306 L 0,-10.106 -7.485,-3.344 v -14.59 h -7.523 v 28.497 h 3.381 z" /></g><path
           id="path118"
           style="fill:#231f20;fill-opacity:1;fill-rule:nonzero;stroke:none"
           d="m 76.385,57.588 h 7.484 V 29.092 h -7.484 z" /><g
           transform="translate(110.5435,29.0918)"
           id="g120"><path
             id="path122"
             style="fill:#231f20;fill-opacity:1;fill-rule:nonzero;stroke:none"
             d="M 0,0 -13.45,13.488 V 0 h -7.486 v 28.496 h 3.04 l 13.489,-13.45 v 13.45 H 3.077 V 0 Z" /></g><g
           transform="translate(119.3618,57.5879)"
           id="g124"><path
             id="path126"
             style="fill:#fdc444;fill-opacity:1;fill-rule:nonzero;stroke:none"
             d="m 0,0 h 7.484 v -20.974 h 10.259 v -7.522 l -17.743,0 z" /></g><g
           transform="translate(152.686,39.1221)"
           id="g128"><path
             id="path130"
             style="fill:#fdc444;fill-opacity:1;fill-rule:nonzero;stroke:none"
             d="M 0,0 H 5.812 L 2.925,6.27 Z M -12.12,-10.03 1.178,18.466 H 4.559 L 17.971,-10.03 H 10.486 L 8.738,-6.307 H -2.926 l -1.71,-3.723 z" /></g><g
           transform="translate(186.9614,35.2471)"
           id="g132"><path
             id="path134"
             style="fill:#fdc444;fill-opacity:1;fill-rule:nonzero;stroke:none"
             d="M 0,0 C 1.368,0 2.47,1.102 2.47,2.47 2.47,3.837 1.292,4.939 0,4.939 H -5.016 V 0 Z m -1.406,11.208 c 1.368,0 2.469,1.102 2.469,2.47 0,1.368 -1.101,2.469 -2.469,2.469 h -3.61 V 11.208 Z M -12.5,-6.155 V 22.341 H 0.076 c 4.56,0 8.435,-3.914 8.435,-8.473 0,-1.938 -0.722,-3.723 -1.824,-5.13 1.938,-1.557 3.23,-3.951 3.23,-6.535 0,-4.52 -3.838,-8.358 -8.359,-8.358 z" /></g></g></g></g></svg>